Coordinates
version=1
nRows=24
nColumns=38
inDegrees=no

Units are S.I. units (second, meters, Newtons, ...)
If the header above contains a line with 'inDegrees', this indicates whether rotational values are in degrees (yes) or radians (no).

endheader
time	pelvis_tilt	pelvis_list	pelvis_rotation	pelvis_tx	pelvis_ty	pelvis_tz	hip_flexion_r	hip_adduction_r	hip_rotation_r	knee_angle_r	ankle_angle_r	subtalar_angle_r	mtp_angle_r	hip_flexion_l	hip_adduction_l	hip_rotation_l	knee_angle_l	ankle_angle_l	subtalar_angle_l	mtp_angle_l	lumbar_extension	lumbar_bending	lumbar_rotation	arm_flex_r	arm_add_r	arm_rot_r	elbow_flex_r	pro_sup_r	wrist_flex_r	wrist_dev_r	arm_flex_l	arm_add_l	arm_rot_l	elbow_flex_l	pro_sup_l	wrist_flex_l	wrist_dev_l
0	1.87385	1.50781	-0.106972	0.584544	-0.339235	0.927956	0.496859	-0.0475127	-0.325781	0.504919	0.0161479	0	0	-0.125197	-0.102673	-0.085462	0.850391	0.0041206	0	0	-0.0913528	0.0413364	-0.251951	-0.0821548	-0.140728	-0.156576	0.287663	1.56255	0	0	0.0525555	-0.26138	-0.449152	0	1.5708	0	0
0.01	1.77484	1.50506	-0.00941108	0.585473	-0.325905	0.928366	0.492027	-0.0448275	-0.337566	0.513265	0.016258	0	0	-0.0787622	-0.111065	-0.078502	0.92312	-0.0568721	0	0	-0.0846038	0.0465661	-0.248153	-0.0918006	-0.140554	-0.134348	0.300326	1.53524	0	0	0.0533681	-0.260686	-0.422599	0	1.5708	0	0
0.02	1.70725	1.50134	0.0539025	0.586612	-0.312375	0.928997	0.481296	-0.0390188	-0.349527	0.512992	0.0171308	0	0	-0.0365799	-0.119388	-0.0748719	0.987303	-0.119812	0	0	-0.0792293	0.0522345	-0.241736	-0.100053	-0.139957	-0.124588	0.312945	1.51306	0	0	0.0542579	-0.25997	-0.401886	0	1.5708	0	0
0.03	1.65039	1.49842	0.103444	0.588007	-0.298971	0.929776	0.469295	-0.0316353	-0.357032	0.509891	0.0210521	0	0	0.00295087	-0.125968	-0.074151	1.04362	-0.183437	0	0	-0.0742193	0.0563887	-0.231787	-0.107966	-0.139124	-0.118748	0.326675	1.4912	0	0	0.055429	-0.259618	-0.38122	0	1.5708	0	0
0.04	1.60385	1.49607	0.139979	0.589606	-0.285804	0.930828	0.457479	-0.0226678	-0.358235	0.507187	0.0279495	0	0	0.0392382	-0.13043	-0.0741048	1.09288	-0.241795	0	0	-0.0702177	0.0595403	-0.219087	-0.116121	-0.138516	-0.112941	0.343212	1.4707	0	0	0.0566294	-0.259243	-0.363959	0	1.5708	0	0
0.05	1.57332	1.49368	0.158783	0.591292	-0.272912	0.932278	0.445171	-0.01164	-0.353018	0.504594	0.0355138	0	0	0.0733939	-0.133555	-0.0733994	1.13991	-0.277241	0	0	-0.0682134	0.0626445	-0.204767	-0.121635	-0.137397	-0.111727	0.355467	1.46013	0	0	0.0579673	-0.258562	-0.352291	0	1.5708	0	0
0.06	1.5653	1.49199	0.154647	0.592938	-0.260246	0.934161	0.431592	-0.000125717	-0.342753	0.502518	0.0426697	0	0	0.106205	-0.135786	-0.0728646	1.18736	-0.279782	0	0	-0.0687627	0.0650073	-0.191334	-0.124277	-0.135894	-0.112846	0.363783	1.45943	0	0	0.0594583	-0.257661	-0.349161	0	1.5708	0	0
0.07	1.58271	1.49173	0.125643	0.594463	-0.247729	0.936448	0.415442	0.010297	-0.329252	0.500014	0.0501997	0	0	0.136799	-0.136616	-0.0721743	1.2319	-0.258495	0	0	-0.0721823	0.0660157	-0.17932	-0.125457	-0.134265	-0.112486	0.370832	1.46147	0	0	0.0606625	-0.256666	-0.349105	0	1.5708	0	0
0.08	1.62908	1.49267	0.0687527	0.595843	-0.235277	0.939157	0.394454	0.0197727	-0.314472	0.493605	0.0580308	0	0	0.164566	-0.135838	-0.0710529	1.27028	-0.228718	0	0	-0.0782505	0.0657012	-0.168954	-0.123893	-0.131971	-0.113094	0.373488	1.46338	0	0	0.0624785	-0.255664	-0.352642	0	1.5708	0	0
0.09	1.68848	1.49397	0.000956606	0.597044	-0.222997	0.942107	0.369467	0.0278779	-0.301885	0.481721	0.0647084	0	0	0.191602	-0.133726	-0.068249	1.30269	-0.199907	0	0	-0.0851788	0.064645	-0.160815	-0.121753	-0.128968	-0.116973	0.377649	1.46416	0	0	0.0654258	-0.254874	-0.359017	0	1.5708	0	0
0.1	1.74456	1.49533	-0.0617691	0.598094	-0.210869	0.945032	0.342717	0.0345556	-0.29242	0.465531	0.0701316	0	0	0.219351	-0.130105	-0.063251	1.32945	-0.176317	0	0	-0.0915799	0.063352	-0.154009	-0.120089	-0.125775	-0.122172	0.38146	1.46502	0	0	0.0695671	-0.254131	-0.365241	0	1.5708	0	0
0.11	1.78366	1.49682	-0.1064	0.599024	-0.198926	0.947755	0.31676	0.0397215	-0.286433	0.447749	0.0751859	0	0	0.248795	-0.125296	-0.0569549	1.35057	-0.159178	0	0	-0.0963979	0.0620274	-0.147347	-0.118305	-0.122721	-0.126112	0.381655	1.46849	0	0	0.0749744	-0.253228	-0.369739	0	1.5708	0	0
0.12	1.8095	1.49822	-0.137396	0.59992	-0.187111	0.9503	0.29162	0.0441103	-0.283249	0.429172	0.0798552	0	0	0.278971	-0.120425	-0.050576	1.36617	-0.146696	0	0	-0.0999648	0.0610096	-0.140512	-0.116893	-0.120008	-0.130883	0.381456	1.47338	0	0	0.0809294	-0.252076	-0.372963	0	1.5708	0	0
0.13	1.83534	1.50134	-0.170596	0.602026	-0.175397	0.95275	0.266431	0.0475033	-0.280991	0.409489	0.0844811	0	0	0.309701	-0.127199	-0.0380509	1.37348	-0.12885	0	0	-0.103729	0.0564528	-0.131783	-0.115413	-0.116106	-0.136214	0.380171	1.47972	0	0	0.0851797	-0.250523	-0.375933	0	1.5708	0	0
0.14	1.84678	1.50106	-0.187796	0.601808	-0.163647	0.954891	0.241695	0.0520853	-0.277988	0.39014	0.088584	0	0	0.33665	-0.111613	-0.0417938	1.381	-0.129008	0	0	-0.105979	0.0593477	-0.121878	-0.115873	-0.116259	-0.142561	0.380095	1.48654	0	0	0.0928109	-0.248234	-0.377706	0	1.5708	0	0
0.15	1.86416	1.50313	-0.213795	0.602829	-0.151999	0.956881	0.21825	0.0551696	-0.272601	0.372009	0.0923691	0	0	0.363431	-0.107529	-0.0403826	1.38076	-0.120994	0	0	-0.108975	0.057945	-0.109064	-0.116684	-0.114812	-0.15222	0.381154	1.4963	0	0	0.0982705	-0.245558	-0.377235	0.000650956	1.5708	0	0
0.16	2.12446	1.50629	-0.481721	0.606076	-0.141047	0.95879	0.181929	0.0542111	-0.266811	0.357997	0.100961	0	0	0.376009	-0.113712	-0.033954	1.3744	-0.102987	0	0	-0.133645	0.0409559	-0.10449	-0.108565	-0.107933	-0.146361	0.380563	1.5049	0	0	-0.117052	-0.456723	0.64007	0.684787	0.73004	0	0
0.17	2.18073	1.508	-0.5485	0.607149	-0.129489	0.960517	0.156703	0.0566543	-0.255709	0.339141	0.103783	0	0	0.397199	-0.109747	-0.0362669	1.3644	-0.0926388	0	0	-0.138409	0.0378469	-0.0899274	-0.11011	-0.10827	-0.148341	0.382471	1.5048	0	0	-0.111339	-0.452773	0.631015	0.687908	0.722081	0	0
0.18	2.26114	1.50922	-0.638967	0.608116	-0.117873	0.962158	0.130485	0.0581475	-0.243061	0.321492	0.107711	0	0	0.415205	-0.105273	-0.0393402	1.3501	-0.079421	0	0	-0.144426	0.0339532	-0.0762903	-0.111674	-0.108655	-0.150658	0.384423	1.50508	0	0	-0.107215	-0.447881	0.615551	0.6914	0.724992	0	0
0.19	2.43286	1.51718	-0.816731	0.608717	-0.10701	0.963987	0.109135	0.047816	-0.234221	0.309951	0.114145	0	0	0.427976	-0.0742857	-0.0221823	1.32127	-0.0604192	0	0	-0.150498	0.0204678	-0.0684748	-0.109523	-0.10719	-0.152396	0.381989	1.50508	0	0	-0.100653	-0.44433	0.604059	0.692396	0.726102	0	0
0.2	2.53406	1.514	-0.928123	0.609625	-0.0950456	0.965361	0.0781669	0.0511577	-0.218611	0.288549	0.116505	0	0	0.440706	-0.0820232	-0.0397173	1.30071	-0.0436936	0	0	-0.15861	0.0174793	-0.0570239	-0.10976	-0.107919	-0.155782	0.381576	1.50948	0	0	-0.100417	-0.436754	0.575972	0.694988	0.741048	0	0
0.21	2.54453	1.51033	-0.948804	0.610581	-0.0829161	0.965998	0.0507687	0.0578274	-0.203352	0.268351	0.118203	0	0	0.457916	-0.0905947	-0.0513972	1.28227	-0.0263059	0	0	-0.163105	0.0187835	-0.0451825	-0.113232	-0.110952	-0.154332	0.386084	1.51049	0	0	-0.0996391	-0.430186	0.558747	0.698162	0.748466	0	0
0.22	2.63169	1.50905	-1.043	0.611218	-0.0712763	0.966882	0.0240017	0.0570915	-0.192315	0.250508	0.120733	0	0	0.468426	-0.0864506	-0.055962	1.25137	-0.00885355	0	0	-0.169928	0.0140261	-0.0379407	-0.113979	-0.112409	-0.153795	0.388245	1.51086	0	0	-0.0972738	-0.424836	0.543436	0.700185	0.753393	0	0
0.23	2.70622	1.50662	-1.12366	0.611776	-0.0596139	0.967585	-0.00324091	0.0567026	-0.182651	0.23328	0.123632	0	0	0.476883	-0.0842492	-0.0623529	1.21713	0.00820872	0	0	-0.177321	0.0100565	-0.0324466	-0.114421	-0.113886	-0.154256	0.39041	1.51177	0	0	-0.0951225	-0.419887	0.530708	0.701902	0.756364	0	0
